<?xml version="1.0" encoding="UTF-8"?>
<!DOCTYPE svg PUBLIC "-//W3C//DTD SVG 1.1//EN" "http://www.w3.org/Graphics/SVG/1.1/DTD/svg11.dtd">
<svg xmlns="http://www.w3.org/2000/svg" version="1.1" width="1190px" height="500px" style="shape-rendering:geometricPrecision; text-rendering:geometricPrecision; image-rendering:optimizeQuality; fill-rule:evenodd; clip-rule:evenodd" xmlns:xlink="http://www.w3.org/1999/xlink">
<g><path style="opacity:1" fill="#fefefe" d="M -0.5,-0.5 C 396.167,-0.5 792.833,-0.5 1189.5,-0.5C 1189.5,166.167 1189.5,332.833 1189.5,499.5C 792.833,499.5 396.167,499.5 -0.5,499.5C -0.5,332.833 -0.5,166.167 -0.5,-0.5 Z"/></g>
<g><path style="opacity:1" fill="#c21905" d="M 241.5,30.5 C 320.799,25.7536 385.965,53.4202 437,113.5C 487.179,181.383 497.513,255.049 468,334.5C 433.498,410.973 374.665,455.806 291.5,469C 215.818,476.39 151.985,452.557 100,397.5C 50.2465,338.146 33.9132,270.479 51,194.5C 73.9068,117.927 123.073,66.4266 198.5,40C 212.855,36.3242 227.188,33.1576 241.5,30.5 Z"/></g>
<g><path style="opacity:1" fill="#c21b07" d="M 1064.5,124.5 C 1064.5,143.833 1064.5,163.167 1064.5,182.5C 1075.01,182.828 1085.35,182.494 1095.5,181.5C 1107.56,181.245 1119.56,180.745 1131.5,180C 1133.56,187.597 1132.23,194.597 1127.5,201C 1106.93,202.477 1086.26,202.977 1065.5,202.5C 1065.01,238.586 1065.51,274.586 1067,310.5C 1074.29,317.558 1080.96,316.891 1087,308.5C 1092.02,299.44 1095.35,289.774 1097,279.5C 1101.51,270.569 1106.84,270.235 1113,278.5C 1114.01,280.534 1114.51,282.7 1114.5,285C 1112.39,299.041 1106.89,311.541 1098,322.5C 1085.18,336.082 1070.35,338.916 1053.5,331C 1049.54,327.877 1046.54,324.043 1044.5,319.5C 1041.28,322.765 1037.95,325.931 1034.5,329C 1022.55,336.797 1010.21,337.464 997.5,331C 994.721,328.598 992.055,326.098 989.5,323.5C 979.962,333.624 968.295,337.457 954.5,335C 945.263,332.084 938.096,326.584 933,318.5C 925.784,326.361 916.951,331.527 906.5,334C 878.059,339.857 856.559,330.357 842,305.5C 830.531,275.123 834.198,246.79 853,220.5C 863.738,207.587 877.238,203.087 893.5,207C 902.437,211.028 907.937,217.861 910,227.5C 912.067,250.191 904.567,269.025 887.5,284C 880.435,288.863 873.102,293.196 865.5,297C 870.685,308.602 879.685,314.769 892.5,315.5C 908.089,314.795 919.256,307.462 926,293.5C 924.665,264.685 934.498,240.519 955.5,221C 970.355,208.741 987.355,203.741 1006.5,206C 1014.58,210.428 1016.58,216.761 1012.5,225C 982.007,222.674 962.174,236.174 953,265.5C 950.771,276.407 950.105,287.407 951,298.5C 953.172,310.022 960.005,315.522 971.5,315C 978.121,311.71 982.621,306.543 985,299.5C 985.579,279.143 985.579,258.81 985,238.5C 991.121,235.851 997.288,236.018 1003.5,239C 1005.38,240.543 1006.88,242.376 1008,244.5C 1008.33,264.167 1008.67,283.833 1009,303.5C 1010.82,314.489 1016.65,317.656 1026.5,313C 1031.67,307.826 1035.17,301.659 1037,294.5C 1038.34,289.162 1039.67,283.829 1041,278.5C 1041.5,253.169 1041.67,227.836 1041.5,202.5C 1034.16,202.666 1026.83,202.5 1019.5,202C 1010.9,197.861 1007.9,191.195 1010.5,182C 1020.83,181.5 1031.16,181.334 1041.5,181.5C 1041.67,161.831 1041.5,142.164 1041,122.5C 1038.16,120.049 1037.99,117.549 1040.5,115C 1047.05,113.919 1053.39,114.586 1059.5,117C 1062.2,118.857 1063.87,121.357 1064.5,124.5 Z"/></g>
<g><path style="opacity:1" fill="#fefcfc" d="M 249.5,116.5 C 258.202,114.37 263.368,117.703 265,126.5C 265.333,163.833 265.667,201.167 266,238.5C 266.533,248.401 271.367,251.901 280.5,249C 283.142,246.424 284.642,243.257 285,239.5C 285.648,201.113 285.648,162.779 285,124.5C 288.958,122.082 293.125,121.915 297.5,124C 299.049,125.214 300.215,126.714 301,128.5C 301.333,166.5 301.667,204.5 302,242.5C 304.309,250.237 309.142,252.404 316.5,249C 318.317,247.2 319.484,245.034 320,242.5C 320.03,203.462 320.697,164.462 322,125.5C 325.727,115.972 332.227,113.805 341.5,119C 342.687,120.019 343.687,121.186 344.5,122.5C 340.656,124.842 338.156,128.175 337,132.5C 336.667,169.167 336.333,205.833 336,242.5C 333.457,256.211 325.29,263.878 311.5,265.5C 312.354,284.387 320.354,299.22 335.5,310C 352.053,318.895 368.386,318.562 384.5,309C 396.185,298.284 401.519,284.951 400.5,269C 399.402,237.956 385.236,215.123 358,200.5C 354.292,192.605 356.125,186.105 363.5,181C 371.467,174.668 379.8,174.001 388.5,179C 425.795,206.44 441.628,243.273 436,289.5C 424.824,336.851 394.99,357.685 346.5,352C 322.981,346.306 304.981,333.14 292.5,312.5C 271.959,341.98 243.626,354.813 207.5,351C 155.859,343.021 118.692,315.521 96,268.5C 87.2637,246.137 86.2637,223.47 93,200.5C 106.03,172.895 127.863,160.728 158.5,164C 199.498,170.54 227.332,193.04 242,231.5C 243.966,240.842 243.966,250.175 242,259.5C 239.833,267 235,271.833 227.5,274C 220.15,275.231 213.15,274.231 206.5,271C 214.692,237.738 202.358,215.405 169.5,204C 136.877,193.028 121.711,204.528 124,238.5C 133.468,276.304 156.968,300.804 194.5,312C 223.534,318.987 248.034,311.487 268,289.5C 273.377,282.41 276.21,274.41 276.5,265.5C 262.463,265.302 253.963,258.302 251,244.5C 249.71,206.196 249.043,167.862 249,129.5C 247.328,126.663 245.161,124.33 242.5,122.5C 244.307,119.781 246.64,117.781 249.5,116.5 Z"/></g>
<g><path style="opacity:1" fill="#dc786b" d="M 1064.5,124.5 C 1065.5,143.326 1065.83,162.326 1065.5,181.5C 1075.5,181.5 1085.5,181.5 1095.5,181.5C 1085.35,182.494 1075.01,182.828 1064.5,182.5C 1064.5,163.167 1064.5,143.833 1064.5,124.5 Z"/></g>
<g><path style="opacity:1" fill="#c21b06" d="M 713.5,205.5 C 736.693,203.035 748.693,213.368 749.5,236.5C 748.844,256.312 740.844,272.479 725.5,285C 718.781,289.565 711.781,293.565 704.5,297C 711.235,310.539 722.235,316.539 737.5,315C 748.686,312.997 757.186,307.164 763,297.5C 766.905,288.446 770.405,279.279 773.5,270C 786.117,266.782 791.117,271.615 788.5,284.5C 780.343,322.099 757.009,338.932 718.5,335C 695.926,328.759 681.76,314.259 676,291.5C 670.988,264.86 676.655,240.86 693,219.5C 698.98,213.439 705.813,208.772 713.5,205.5 Z"/></g>
<g><path style="opacity:1" fill="#c21a05" d="M 526.5,208.5 C 534.677,207.385 541.177,210.052 546,216.5C 546.333,243.833 546.667,271.167 547,298.5C 548.749,313.451 556.582,318.284 570.5,313C 573.807,310.222 575.974,306.722 577,302.5C 577.627,272.134 577.627,241.8 577,211.5C 579.133,209.147 581.8,208.147 585,208.5C 592.76,208.043 598.093,211.376 601,218.5C 601.068,247.527 601.734,276.527 603,305.5C 608.745,316.305 616.745,318.305 627,311.5C 629.727,307.61 631.393,303.277 632,298.5C 632.617,269.473 632.617,240.473 632,211.5C 634.041,209.026 636.708,208.026 640,208.5C 646.917,208.453 651.917,211.453 655,217.5C 655.667,246.167 655.667,274.833 655,303.5C 652.409,324.758 640.409,335.424 619,335.5C 606.865,335.514 597.032,330.848 589.5,321.5C 579.499,333.224 566.832,337.724 551.5,335C 533.976,330.824 524.809,319.657 524,301.5C 523.619,271.473 523.285,241.473 523,211.5C 524.145,210.364 525.312,209.364 526.5,208.5 Z"/></g>
<g><path style="opacity:1" fill="#fdf8f8" d="M 714.5,226.5 C 723.335,225.17 727.001,229.003 725.5,238C 724.893,256.399 716.56,269.899 700.5,278.5C 698.459,262.745 700.959,247.745 708,233.5C 709.694,230.642 711.861,228.309 714.5,226.5 Z"/></g>
<g><path style="opacity:1" fill="#fef9f8" d="M 875.5,226.5 C 880.439,225.352 883.939,227.019 886,231.5C 887.824,252.524 879.657,268.19 861.5,278.5C 859.155,261.902 861.989,246.236 870,231.5C 871.73,229.598 873.563,227.931 875.5,226.5 Z"/></g>
</svg>
