<?xml version="1.0" encoding="UTF-8"?>
<!DOCTYPE svg PUBLIC "-//W3C//DTD SVG 1.1//EN" "http://www.w3.org/Graphics/SVG/1.1/DTD/svg11.dtd">
<svg xmlns="http://www.w3.org/2000/svg" version="1.1" width="1069px" height="460px" style="shape-rendering:geometricPrecision; text-rendering:geometricPrecision; image-rendering:optimizeQuality; fill-rule:evenodd; clip-rule:evenodd" xmlns:xlink="http://www.w3.org/1999/xlink">
<g><path style="opacity:1" fill="#fefefe" d="M -0.5,-0.5 C 355.833,-0.5 712.167,-0.5 1068.5,-0.5C 1068.5,152.833 1068.5,306.167 1068.5,459.5C 712.167,459.5 355.833,459.5 -0.5,459.5C -0.5,306.167 -0.5,152.833 -0.5,-0.5 Z"/></g>
<g><path style="opacity:1" fill="#c21a05" d="M 280.5,46.5 C 290.76,45.2124 297.26,49.5458 300,59.5C 300.667,62.8333 301.333,66.1667 302,69.5C 302.333,124.833 302.667,180.167 303,235.5C 305.913,250.21 313.746,253.877 326.5,246.5C 328.886,242.511 330.386,238.177 331,233.5C 331.65,175.459 331.65,117.459 331,59.5C 334.396,55.7973 338.563,54.6306 343.5,56C 349.501,57.3356 353.668,60.8356 356,66.5C 356.333,123.833 356.667,181.167 357,238.5C 359.998,249.393 366.831,252.893 377.5,249C 381.949,245.603 384.449,241.103 385,235.5C 385.02,177.797 385.687,120.13 387,62.5C 390.78,46.5269 399.947,42.3602 414.5,50C 416.667,51.5 418.833,53 421,54.5C 421.667,55.5 421.667,56.5 421,57.5C 414.306,60.2052 410.639,65.2052 410,72.5C 409.971,128.861 409.304,185.194 408,241.5C 403.166,261.165 390.666,271.832 370.5,273.5C 373.001,294.528 380.834,313.195 394,329.5C 416.261,349.886 441.761,355.053 470.5,345C 490.803,334.68 502.636,318.18 506,295.5C 510.307,240.544 488.64,199.544 441,172.5C 437.735,166.528 437.735,160.528 441,154.5C 451.169,139.662 465.002,134.162 482.5,138C 529.49,168.78 555.99,212.28 562,268.5C 565.444,308.77 554.111,344.104 528,374.5C 501.561,398.58 470.395,408.747 434.5,405C 393.857,399.195 363.191,378.695 342.5,343.5C 315.051,384.144 276.551,403.811 227,402.5C 199.417,402.396 173.251,396.23 148.5,384C 106.542,363.039 74.0418,332.206 51,291.5C 33.3071,257.592 28.3071,221.925 36,184.5C 52.4263,136.179 86.2596,114.345 137.5,119C 191.595,126.597 231.761,154.097 258,201.5C 268.216,221.235 270.883,241.902 266,263.5C 257.703,282.627 243.203,289.794 222.5,285C 218.491,284.252 214.824,282.752 211.5,280.5C 211.167,279.5 210.833,278.5 210.5,277.5C 221.357,252.079 217.857,228.745 200,207.5C 174.577,181.026 143.744,170.526 107.5,176C 97.3821,180.788 90.8821,188.622 88,199.5C 83.1707,227.526 88.5041,253.526 104,277.5C 135.533,323.686 179.367,346.853 235.5,347C 267.109,342.626 291.943,327.459 310,301.5C 315.483,292.559 318.317,282.892 318.5,272.5C 301.66,273.834 289.827,266.834 283,251.5C 281.198,246.625 279.865,241.625 279,236.5C 278.667,182.5 278.333,128.5 278,74.5C 277.466,70.2316 276.133,66.2316 274,62.5C 271.307,60.427 268.807,58.2603 266.5,56C 266.759,54.7387 267.426,53.7387 268.5,53C 272.434,50.5361 276.434,48.3694 280.5,46.5 Z"/></g>
<g><path style="opacity:1" fill="#c21c07" d="M 939.5,140.5 C 949.38,139.164 956.546,142.831 961,151.5C 961.5,170.83 961.667,190.164 961.5,209.5C 982.883,209.266 1004.22,208.266 1025.5,206.5C 1026.44,206.608 1027.28,206.941 1028,207.5C 1028.95,214.871 1027.45,221.705 1023.5,228C 1002.86,229.371 982.195,229.871 961.5,229.5C 961.019,265.562 961.519,301.562 963,337.5C 967.47,341.837 972.637,342.67 978.5,340C 982.786,335.936 985.952,331.103 988,325.5C 990.002,318.162 992.002,310.829 994,303.5C 999.543,297.997 1004.54,298.663 1009,305.5C 1009.71,327.312 1001.21,344.812 983.5,358C 965.209,367.249 950.709,363.415 940,346.5C 929.378,360.485 915.545,365.318 898.5,361C 893.733,358.069 889.399,354.569 885.5,350.5C 871.232,364.288 855.565,366.121 838.5,356C 834.964,352.799 831.797,349.299 829,345.5C 810.957,362.377 790.124,366.877 766.5,359C 748.335,350.848 737.169,337.015 733,317.5C 727.255,287.959 734.755,262.459 755.5,241C 767.97,231.279 781.303,229.946 795.5,237C 804.296,245.665 807.796,256.165 806,268.5C 801.767,295.802 786.6,313.969 760.5,323C 768.119,339.139 780.786,345.139 798.5,341C 809.481,337.356 817.314,330.189 822,319.5C 820.735,284.855 834.568,258.355 863.5,240C 875.718,233.363 888.718,231.029 902.5,233C 910.238,237.381 912.238,243.547 908.5,251.5C 876.307,250.039 856.14,265.039 848,296.5C 846.509,306.121 846.176,315.788 847,325.5C 849.212,337.729 856.378,342.895 868.5,341C 874.626,337.953 878.792,333.119 881,326.5C 881.579,306.143 881.579,285.81 881,265.5C 890.288,260.699 897.955,262.699 904,271.5C 904.034,292.564 904.7,313.564 906,334.5C 908.73,341.053 913.563,343.22 920.5,341C 924.958,338.26 928.125,334.427 930,329.5C 933.266,321.771 935.599,313.771 937,305.5C 937.5,280.169 937.667,254.836 937.5,229.5C 930.159,229.666 922.826,229.5 915.5,229C 906.045,224.445 903.379,217.445 907.5,208C 917.477,208.256 927.477,208.423 937.5,208.5C 937.667,188.831 937.5,169.164 937,149.5C 933.21,145.1 934.044,142.1 939.5,140.5 Z"/></g>
<g><path style="opacity:1" fill="#c21b07" d="M 610.5,232.5 C 633.398,230.566 645.065,241.066 645.5,264C 642.81,292.695 627.977,312.195 601,322.5C 603.684,331.851 609.85,338.018 619.5,341C 643.458,344.054 658.625,333.887 665,310.5C 665.203,305.504 666.703,301.004 669.5,297C 675.999,293.31 681.166,294.81 685,301.5C 684.288,331.529 669.788,351.362 641.5,361C 601.852,366.682 578.352,349.849 571,310.5C 568.119,287.15 573.786,266.15 588,247.5C 594.355,240.587 601.855,235.587 610.5,232.5 Z"/></g>
<g><path style="opacity:1" fill="#fefaf9" d="M 597.5,304.5 C 596.51,298.69 596.177,292.69 596.5,286.5C 597.065,274.632 601.065,264.132 608.5,255C 614.198,250.965 618.365,252.132 621,258.5C 622.893,279.053 615.059,294.386 597.5,304.5 Z"/></g>
<g><path style="opacity:1" fill="#fef8f8" d="M 773.5,252.5 C 777.526,252.677 780.359,254.677 782,258.5C 783.832,279.507 775.665,295.174 757.5,305.5C 755.131,288.849 757.964,273.182 766,258.5C 768.114,255.879 770.614,253.879 773.5,252.5 Z"/></g>
<g><path style="opacity:1" fill="#f0c0b9" d="M 596.5,286.5 C 596.177,292.69 596.51,298.69 597.5,304.5C 597.44,305.043 597.107,305.376 596.5,305.5C 595.183,299.012 595.183,292.678 596.5,286.5 Z"/></g>
</svg>
