<?xml version="1.0" encoding="UTF-8"?>
<!DOCTYPE svg PUBLIC "-//W3C//DTD SVG 1.1//EN" "http://www.w3.org/Graphics/SVG/1.1/DTD/svg11.dtd">
<svg xmlns="http://www.w3.org/2000/svg" version="1.1" width="1080px" height="1080px" style="shape-rendering:geometricPrecision; text-rendering:geometricPrecision; image-rendering:optimizeQuality; fill-rule:evenodd; clip-rule:evenodd" xmlns:xlink="http://www.w3.org/1999/xlink">
<g><path style="opacity:1" fill="#fefefe" d="M -0.5,-0.5 C 359.5,-0.5 719.5,-0.5 1079.5,-0.5C 1079.5,359.5 1079.5,719.5 1079.5,1079.5C 719.5,1079.5 359.5,1079.5 -0.5,1079.5C -0.5,719.5 -0.5,359.5 -0.5,-0.5 Z"/></g>
<g><path style="opacity:1" fill="#c21804" d="M 508.5,75.5 C 678.567,69.6312 814.734,133.965 917,268.5C 1002.66,393.115 1024.99,528.448 984,674.5C 941.858,805.308 859.025,900.808 735.5,961C 629.833,1008.03 521.166,1016.36 409.5,986C 275.479,943.968 177.979,859.802 117,733.5C 75.3443,639.614 64.6776,542.281 85,441.5C 115.917,310.984 188.084,210.484 301.5,140C 365.53,102.248 434.53,80.7476 508.5,75.5 Z"/></g>
<g><path style="opacity:1" fill="#fefdfd" d="M 476.5,216.5 C 483.644,214.992 489.477,216.992 494,222.5C 496.455,226.531 498.121,230.864 499,235.5C 499.333,291.5 499.667,347.5 500,403.5C 502.825,418.916 510.825,422.583 524,414.5C 526.133,410.768 527.466,406.768 528,402.5C 528.65,344.792 528.65,287.126 528,229.5C 532.416,225.047 537.583,224.213 543.5,227C 547.974,228.808 551.141,231.974 553,236.5C 553.333,293.167 553.667,349.833 554,406.5C 556.226,416.535 562.393,420.368 572.5,418C 578.261,415.004 581.428,410.171 582,403.5C 582.016,346.122 582.683,288.789 584,231.5C 586.93,218.288 594.763,213.788 607.5,218C 612.698,219.717 616.365,222.884 618.5,227.5C 611.734,229.106 607.901,233.439 607,240.5C 606.667,294.167 606.333,347.833 606,401.5C 603.932,425.398 591.099,439.065 567.5,442.5C 569.723,464.703 578.389,483.869 593.5,500C 615.265,517.876 639.598,522.209 666.5,513C 686.807,502.677 698.64,486.177 702,463.5C 706.466,419.191 691.632,383.024 657.5,355C 650.745,351.208 644.245,347.041 638,342.5C 634.574,337.816 633.907,332.816 636,327.5C 644.087,311.872 656.921,304.705 674.5,306C 707.088,323.925 730.588,350.092 745,384.5C 758.15,417.548 761.15,451.548 754,486.5C 738.546,542.645 701.713,571.645 643.5,573.5C 597.668,571.262 563.002,550.595 539.5,511.5C 512.451,551.695 474.451,571.362 425.5,570.5C 392.631,570.045 361.964,561.545 333.5,545C 288.326,519.792 256.826,482.959 239,434.5C 229.018,403.46 229.018,372.46 239,341.5C 255.287,306.245 282.954,288.245 322,287.5C 376.425,290.003 418.759,313.67 449,358.5C 462.142,378.595 467.475,400.595 465,424.5C 461.855,443.48 450.688,453.48 431.5,454.5C 424.175,454.431 417.175,452.931 410.5,450C 409.667,449.167 408.833,448.333 408,447.5C 419.508,421.343 415.841,397.343 397,375.5C 373.834,351.886 345.668,341.052 312.5,343C 298.404,346.975 289.571,356.142 286,370.5C 281.747,400.736 288.747,428.07 307,452.5C 338.528,494.658 380.695,515.492 433.5,515C 461.362,511.425 484.196,498.925 502,477.5C 510.353,466.941 514.853,454.941 515.5,441.5C 494.557,441.402 481.723,431.069 477,410.5C 475.691,354.198 475.025,297.865 475,241.5C 473.458,234.626 469.624,229.459 463.5,226C 463.759,224.739 464.426,223.739 465.5,223C 469.23,220.807 472.897,218.64 476.5,216.5 Z"/></g>
<g><path style="opacity:1" fill="#fefcfc" d="M 769.5,586.5 C 775.037,586.087 780.37,586.92 785.5,589C 787.709,590.873 789.542,593.04 791,595.5C 791.5,615.164 791.667,634.831 791.5,654.5C 812.173,654.333 832.84,653.833 853.5,653C 854.865,651.318 856.365,651.151 858,652.5C 859.665,660.675 857.832,667.841 852.5,674C 832.169,674.5 811.836,674.667 791.5,674.5C 791.333,708.835 791.5,743.168 792,777.5C 795.692,787.157 802.025,789.157 811,783.5C 812.667,781.167 814.333,778.833 816,776.5C 819.391,766.235 822.891,756.069 826.5,746C 835.016,743.968 840.016,747.468 841.5,756.5C 838.694,770.106 833.194,782.439 825,793.5C 811.887,808.109 796.721,810.942 779.5,802C 776.067,798.958 773.234,795.458 771,791.5C 760.689,804.269 747.522,809.102 731.5,806C 725.754,803.247 720.921,799.414 717,794.5C 703.184,809.057 687.684,811.224 670.5,801C 666.956,797.625 663.623,794.125 660.5,790.5C 641.987,807.122 620.987,811.288 597.5,803C 573.807,790.63 562.473,770.964 563.5,744C 563.438,721.802 571.105,702.802 586.5,687C 597.463,677.51 609.796,675.177 623.5,680C 635.739,688.698 640.572,700.532 638,715.5C 632.701,741.624 617.534,759.124 592.5,768C 599.89,783.028 611.89,789.028 628.5,786C 639.137,783.931 646.97,778.098 652,768.5C 651.805,741.745 660.305,718.245 677.5,698C 693.101,682.871 711.767,676.205 733.5,678C 741.337,682.509 743.337,688.843 739.5,697C 706.683,695.797 686.516,711.297 679,743.5C 677.71,751.802 677.377,760.135 678,768.5C 678.991,776.343 682.824,782.176 689.5,786C 696.549,787.886 702.382,786.053 707,780.5C 708.92,777.661 710.587,774.661 712,771.5C 712.605,751.467 712.605,731.467 712,711.5C 712.833,710.667 713.667,709.833 714.5,709C 724.288,706.585 731.455,709.752 736,718.5C 736.333,738.5 736.667,758.5 737,778.5C 740.693,787.121 746.526,788.788 754.5,783.5C 756.524,781.31 758.357,778.977 760,776.5C 763.289,768.006 765.956,759.34 768,750.5C 768.5,725.169 768.667,699.836 768.5,674.5C 760.826,674.666 753.159,674.5 745.5,674C 737.86,669.588 735.194,663.088 737.5,654.5C 747.814,653.789 758.147,653.789 768.5,654.5C 768.667,634.831 768.5,615.164 768,595.5C 767.167,593.833 766.333,592.167 765.5,590.5C 766.549,588.784 767.882,587.451 769.5,586.5 Z"/></g>
<g><path style="opacity:1" fill="#fefcfc" d="M 444.5,677.5 C 462.869,675.591 474.036,683.591 478,701.5C 479.337,726.324 469.837,745.824 449.5,760C 444.475,763.015 439.142,765.182 433.5,766.5C 436.429,777.259 443.429,783.759 454.5,786C 473.039,788.648 486.205,781.482 494,764.5C 496.31,757.925 498.31,751.258 500,744.5C 505.887,737.867 511.554,738.201 517,745.5C 516.97,777.064 501.803,797.231 471.5,806C 442.019,810.51 420.852,799.343 408,772.5C 397.138,738.111 404.638,708.611 430.5,684C 434.877,680.975 439.544,678.808 444.5,677.5 Z"/></g>
<g><path style="opacity:1" fill="#fefdfd" d="M 256.5,680.5 C 265.072,679.252 271.572,682.252 276,689.5C 276.333,717.5 276.667,745.5 277,773.5C 280.279,785.39 287.779,789.224 299.5,785C 304.45,781.064 306.95,775.898 307,769.5C 307.616,740.806 307.616,712.139 307,683.5C 311.77,680.01 316.936,679.51 322.5,682C 325.667,683.833 328.167,686.333 330,689.5C 330.333,716.5 330.667,743.5 331,770.5C 332.537,784.521 340.037,789.354 353.5,785C 358.242,781.351 360.742,776.518 361,770.5C 361.625,741.467 361.625,712.467 361,683.5C 367.599,679.546 374.099,679.88 380.5,684.5C 381.861,686.028 383.028,687.695 384,689.5C 384.667,717.833 384.667,746.167 384,774.5C 380.143,799.209 365.643,810.042 340.5,807C 331.416,804.901 324.249,800.067 319,792.5C 308.497,805.654 294.997,810.154 278.5,806C 263.263,801.086 255.096,790.586 254,774.5C 253.619,744.139 253.286,713.806 253,683.5C 254.145,682.364 255.312,681.364 256.5,680.5 Z"/></g>
<g><path style="opacity:1" fill="#c3200b" d="M 443.5,698.5 C 448.439,697.352 451.939,699.019 454,703.5C 455.296,724.246 447.129,739.912 429.5,750.5C 427.155,733.902 429.989,718.236 438,703.5C 439.73,701.598 441.563,699.931 443.5,698.5 Z"/></g>
<g><path style="opacity:1" fill="#c31f0a" d="M 603.5,698.5 C 611.667,697.836 615.334,701.669 614.5,710C 613.401,728.044 605.067,741.544 589.5,750.5C 587.438,735.208 589.604,720.541 596,706.5C 598.028,703.308 600.528,700.641 603.5,698.5 Z"/></g>
</svg>
