<?xml version="1.0" encoding="UTF-8"?>
<!DOCTYPE svg PUBLIC "-//W3C//DTD SVG 1.1//EN" "http://www.w3.org/Graphics/SVG/1.1/DTD/svg11.dtd">
<svg xmlns="http://www.w3.org/2000/svg" version="1.1" width="990px" height="990px" style="shape-rendering:geometricPrecision; text-rendering:geometricPrecision; image-rendering:optimizeQuality; fill-rule:evenodd; clip-rule:evenodd" xmlns:xlink="http://www.w3.org/1999/xlink">
<g><path style="opacity:1" fill="#fefefe" d="M -0.5,-0.5 C 329.5,-0.5 659.5,-0.5 989.5,-0.5C 989.5,329.5 989.5,659.5 989.5,989.5C 659.5,989.5 329.5,989.5 -0.5,989.5C -0.5,659.5 -0.5,329.5 -0.5,-0.5 Z"/></g>
<g><path style="opacity:1" fill="#e38f83" d="M 533.5,44.5 C 507.828,43.2671 482.161,43.2671 456.5,44.5C 456.611,43.8826 456.944,43.3826 457.5,43C 479.833,42.3333 502.167,42.3333 524.5,43C 527.695,43.1805 530.695,43.6805 533.5,44.5 Z"/></g>
<g><path style="opacity:1" fill="#c21904" d="M 533.5,44.5 C 551.958,46.2657 570.291,48.9324 588.5,52.5C 590.515,53.9238 592.848,54.5905 595.5,54.5C 598.37,55.6336 601.37,56.3003 604.5,56.5C 606.515,57.9238 608.848,58.5905 611.5,58.5C 612.568,59.4345 613.901,59.7678 615.5,59.5C 618.505,61.2766 621.838,62.2766 625.5,62.5C 629.94,64.5376 634.607,66.2042 639.5,67.5C 725.882,97.3989 797.049,148.399 853,220.5C 860.92,230.678 868.087,241.345 874.5,252.5C 874.427,254.027 875.094,255.027 876.5,255.5C 879,258.494 881,261.827 882.5,265.5C 882.427,267.027 883.094,268.027 884.5,268.5C 886.008,270.181 887.008,272.181 887.5,274.5C 887.427,276.027 888.094,277.027 889.5,277.5C 891.341,279.849 892.674,282.515 893.5,285.5C 893.427,287.027 894.094,288.027 895.5,288.5C 901.618,299.74 906.951,311.407 911.5,323.5C 911.166,326.491 912.166,328.824 914.5,330.5C 914.12,332.698 914.787,334.365 916.5,335.5C 916.5,335.833 916.5,336.167 916.5,336.5C 916.166,339.491 917.166,341.824 919.5,343.5C 921.898,349.695 923.898,356.028 925.5,362.5C 925.41,365.152 926.076,367.485 927.5,369.5C 929.462,374.637 930.796,379.97 931.5,385.5C 931.259,387.898 931.926,389.898 933.5,391.5C 933.5,392.167 933.5,392.833 933.5,393.5C 933.41,396.152 934.076,398.485 935.5,400.5C 936.552,404.426 937.218,408.426 937.5,412.5C 937.579,418.777 938.579,424.777 940.5,430.5C 940.229,435.434 940.896,440.1 942.5,444.5C 945.892,485.951 944.892,527.284 939.5,568.5C 938.076,570.515 937.41,572.848 937.5,575.5C 937.037,578.482 936.704,581.482 936.5,584.5C 934.723,587.505 933.723,590.838 933.5,594.5C 931.752,603.99 929.419,613.324 926.5,622.5C 924.723,625.505 923.723,628.838 923.5,632.5C 921.796,635.939 920.462,639.605 919.5,643.5C 917.23,651.058 914.564,658.391 911.5,665.5C 909.935,667.509 908.935,669.843 908.5,672.5C 902.87,684.431 897.203,696.431 891.5,708.5C 890.094,708.973 889.427,709.973 889.5,711.5C 887.659,713.849 886.326,716.515 885.5,719.5C 884.094,719.973 883.427,720.973 883.5,722.5C 882.662,722.842 882.328,723.508 882.5,724.5C 881.094,724.973 880.427,725.973 880.5,727.5C 879.662,727.842 879.328,728.508 879.5,729.5C 878.094,729.973 877.427,730.973 877.5,732.5C 875.336,734.822 873.669,737.489 872.5,740.5C 871.094,740.973 870.427,741.973 870.5,743.5C 818.187,821.161 748.854,877.827 662.5,913.5C 660.033,913.755 658.033,914.755 656.5,916.5C 655.833,916.5 655.167,916.5 654.5,916.5C 652.033,916.755 650.033,917.755 648.5,919.5C 584.938,941.675 519.605,950.009 452.5,944.5C 445.749,942.678 438.749,941.678 431.5,941.5C 431.167,941.5 430.833,941.5 430.5,941.5C 426.081,940.028 421.414,939.362 416.5,939.5C 412.146,938.914 407.812,938.248 403.5,937.5C 401.485,936.076 399.152,935.41 396.5,935.5C 386.811,934.411 377.478,932.078 368.5,928.5C 366.485,927.076 364.152,926.41 361.5,926.5C 359.485,925.076 357.152,924.41 354.5,924.5C 352.035,924.233 349.701,923.566 347.5,922.5C 346.365,920.787 344.698,920.12 342.5,920.5C 340.421,920.029 338.421,919.363 336.5,918.5C 334.824,916.166 332.491,915.166 329.5,915.5C 233.767,877.323 159.101,814.323 105.5,726.5C 105.573,724.973 104.906,723.973 103.5,723.5C 94.62,707.073 86.2867,690.407 78.5,673.5C 78.0652,670.843 77.0652,668.509 75.5,666.5C 75.0652,663.843 74.0652,661.509 72.5,659.5C 72.5,659.167 72.5,658.833 72.5,658.5C 72.2041,656.597 71.5375,654.93 70.5,653.5C 70.0293,651.421 69.3627,649.421 68.5,647.5C 66.2041,639.609 63.5375,631.942 60.5,624.5C 60.7678,622.901 60.4345,621.568 59.5,620.5C 59.5905,617.848 58.9238,615.515 57.5,613.5C 57.1016,609.239 56.1016,605.239 54.5,601.5C 54.5905,598.848 53.9238,596.515 52.5,594.5C 50.7825,587.245 49.4491,579.912 48.5,572.5C 47.5229,563.978 46.1896,555.645 44.5,547.5C 44.3314,542.819 43.9981,538.152 43.5,533.5C 42.5907,511.182 42.2573,488.849 42.5,466.5C 44.2492,443.343 47.2492,420.343 51.5,397.5C 53.0739,395.898 53.7406,393.898 53.5,391.5C 53.5172,389.435 53.8505,387.435 54.5,385.5C 56.0739,383.898 56.7406,381.898 56.5,379.5C 64.4702,350.585 74.8035,322.585 87.5,295.5C 88.9063,295.027 89.573,294.027 89.5,292.5C 91.3255,287.516 93.6589,282.849 96.5,278.5C 97.9063,278.027 98.573,277.027 98.5,275.5C 98.6596,273.847 99.3263,272.514 100.5,271.5C 101.906,271.027 102.573,270.027 102.5,268.5C 102.328,267.508 102.662,266.842 103.5,266.5C 104.906,266.027 105.573,265.027 105.5,263.5C 137.829,208.996 179.829,163.163 231.5,126C 284.038,89.5938 341.705,64.7605 404.5,51.5C 407.428,51.4349 410.095,50.7682 412.5,49.5C 427.063,46.9619 441.73,45.2953 456.5,44.5C 482.161,43.2671 507.828,43.2671 533.5,44.5 Z"/></g>
<g><path style="opacity:1" fill="#e39084" d="M 412.5,49.5 C 410.095,50.7682 407.428,51.4349 404.5,51.5C 406.838,49.9605 409.505,49.2938 412.5,49.5 Z"/></g>
<g><path style="opacity:1" fill="#e8a59c" d="M 588.5,52.5 C 591.152,52.4095 593.485,53.0762 595.5,54.5C 592.848,54.5905 590.515,53.9238 588.5,52.5 Z"/></g>
<g><path style="opacity:1" fill="#e8a298" d="M 604.5,56.5 C 607.152,56.4095 609.485,57.0762 611.5,58.5C 608.848,58.5905 606.515,57.9238 604.5,56.5 Z"/></g>
<g><path style="opacity:1" fill="#ebada4" d="M 615.5,59.5 C 619.162,59.7234 622.495,60.7234 625.5,62.5C 621.838,62.2766 618.505,61.2766 615.5,59.5 Z"/></g>
<g><path style="opacity:1" fill="#eaa89f" d="M 625.5,62.5 C 630.703,63.0094 635.37,64.6761 639.5,67.5C 634.607,66.2042 629.94,64.5376 625.5,62.5 Z"/></g>
<g><path style="opacity:1" fill="#edb9b2" d="M 454.5,251.5 C 450.131,251.467 445.798,251.8 441.5,252.5C 443.848,251.048 446.514,250.382 449.5,250.5C 451.369,250.507 453.036,250.84 454.5,251.5 Z"/></g>
<g><path style="opacity:1" fill="#fefdfd" d="M 642.5,266.5 C 640.62,266.229 639.287,266.896 638.5,268.5C 635.925,269.568 633.758,271.235 632,273.5C 630.216,277.401 628.716,281.401 627.5,285.5C 626.667,362.831 626.167,440.165 626,517.5C 623.585,538.888 613.418,555.388 595.5,567C 587.322,569.539 579.322,571.706 571.5,573.5C 571.78,582.236 573.447,590.569 576.5,598.5C 577.434,599.568 577.768,600.901 577.5,602.5C 578.009,607.703 579.676,612.37 582.5,616.5C 593.098,643.755 611.765,663.089 638.5,674.5C 640.102,676.074 642.102,676.741 644.5,676.5C 646.515,677.924 648.848,678.59 651.5,678.5C 690.878,688.012 722.878,677.012 747.5,645.5C 748.906,645.027 749.573,644.027 749.5,642.5C 750.096,640.255 751.096,638.255 752.5,636.5C 753.906,636.027 754.573,635.027 754.5,633.5C 754.604,631.297 755.27,629.297 756.5,627.5C 758.99,624.374 760.323,620.708 760.5,616.5C 762.548,609.512 763.881,602.512 764.5,595.5C 765.166,591.18 765.499,586.68 765.5,582C 765.661,574.936 764.994,568.103 763.5,561.5C 762.622,555.558 761.622,549.558 760.5,543.5C 760.59,540.848 759.924,538.515 758.5,536.5C 758.59,533.848 757.924,531.515 756.5,529.5C 756.443,528.391 756.11,527.391 755.5,526.5C 755.204,524.597 754.537,522.93 753.5,521.5C 750.062,510.624 745.062,500.624 738.5,491.5C 738.573,489.973 737.906,488.973 736.5,488.5C 726.113,471.277 712.446,457.111 695.5,446C 687.837,442.171 680.504,437.837 673.5,433C 670.837,429.507 668.837,425.673 667.5,421.5C 667.352,416.681 668.018,412.015 669.5,407.5C 675.612,396.055 684.612,387.722 696.5,382.5C 698.027,382.573 699.027,381.906 699.5,380.5C 715.468,375.497 729.802,378.33 742.5,389C 779.673,415.335 807.007,449.502 824.5,491.5C 824.166,494.491 825.166,496.824 827.5,498.5C 828.537,499.93 829.204,501.597 829.5,503.5C 829.12,505.698 829.787,507.365 831.5,508.5C 831.5,508.833 831.5,509.167 831.5,509.5C 832.057,514.165 833.39,518.498 835.5,522.5C 836.301,524.042 836.634,525.708 836.5,527.5C 836.41,530.152 837.076,532.485 838.5,534.5C 838.674,536.861 839.007,539.194 839.5,541.5C 839.362,546.414 840.028,551.081 841.5,555.5C 841.5,555.833 841.5,556.167 841.5,556.5C 842.166,572.491 842.5,588.491 842.5,604.5C 841.087,620.152 838.087,635.485 833.5,650.5C 832.069,651.78 831.402,653.447 831.5,655.5C 822.885,678.746 810.218,699.413 793.5,717.5C 789.9,719.43 786.9,722.097 784.5,725.5C 770.932,735.788 756.265,744.288 740.5,751C 729.363,754.451 718.029,756.951 706.5,758.5C 693.52,759.354 680.52,759.687 667.5,759.5C 662.507,759.084 657.507,758.751 652.5,758.5C 652.167,758.5 651.833,758.5 651.5,758.5C 651.389,757.883 651.056,757.383 650.5,757C 647.854,756.503 645.187,756.336 642.5,756.5C 640.485,755.076 638.152,754.41 635.5,754.5C 633.485,753.076 631.152,752.41 628.5,752.5C 628.167,752.5 627.833,752.5 627.5,752.5C 625.824,750.166 623.491,749.166 620.5,749.5C 583.948,735.61 555.615,711.944 535.5,678.5C 535.573,676.973 534.906,675.973 533.5,675.5C 533.095,671.538 531.595,670.871 529,673.5C 496.133,724.203 449.299,751.703 388.5,756C 376.838,756.5 365.171,756.667 353.5,756.5C 349.081,755.028 344.414,754.362 339.5,754.5C 336.287,754.81 333.287,754.477 330.5,753.5C 325.894,751.124 320.894,750.124 315.5,750.5C 312.572,750.435 309.905,749.768 307.5,748.5C 298.767,744.922 289.767,741.922 280.5,739.5C 213.01,714.333 160.677,670.999 123.5,609.5C 123.573,607.973 122.906,606.973 121.5,606.5C 116.796,596.431 112.13,586.431 107.5,576.5C 107.065,573.843 106.065,571.509 104.5,569.5C 104.5,569.167 104.5,568.833 104.5,568.5C 103.871,565.603 102.871,562.936 101.5,560.5C 101.443,559.391 101.11,558.391 100.5,557.5C 100.59,554.848 99.9238,552.515 98.5,550.5C 97.8333,547.5 97.1667,544.5 96.5,541.5C 96.5905,538.848 95.9238,536.515 94.5,534.5C 94.552,532.097 94.2186,529.764 93.5,527.5C 93.5557,522.269 92.889,517.269 91.5,512.5C 90.179,499.402 90.179,486.402 91.5,473.5C 92.8569,467.69 93.8569,461.69 94.5,455.5C 94.3253,453.379 94.6586,451.379 95.5,449.5C 97.943,444.5 99.6096,439.166 100.5,433.5C 102.718,426.734 105.718,420.401 109.5,414.5C 110.906,414.027 111.573,413.027 111.5,411.5C 130.022,380.726 157.022,362.06 192.5,355.5C 196.684,355.149 200.684,354.482 204.5,353.5C 216.795,352.544 229.129,352.544 241.5,353.5C 249.645,355.19 257.978,356.523 266.5,357.5C 268.905,358.768 271.572,359.435 274.5,359.5C 276.515,360.924 278.848,361.59 281.5,361.5C 284.518,363.4 287.851,364.733 291.5,365.5C 291.833,365.5 292.167,365.5 292.5,365.5C 294.509,367.065 296.843,368.065 299.5,368.5C 334.18,382.942 363.68,404.609 388,433.5C 394.45,442.114 400.284,451.114 405.5,460.5C 405.427,462.027 406.094,463.027 407.5,463.5C 411.892,470.288 415.225,477.622 417.5,485.5C 418.057,490.165 419.39,494.498 421.5,498.5C 422.451,499.919 422.784,501.585 422.5,503.5C 422.41,506.152 423.076,508.485 424.5,510.5C 427.454,525.97 427.121,541.304 423.5,556.5C 422.069,557.78 421.402,559.447 421.5,561.5C 415.12,577.557 403.453,586.89 386.5,589.5C 377.482,589.552 368.482,589.218 359.5,588.5C 357.485,587.076 355.152,586.41 352.5,586.5C 346.301,585.971 343.301,582.637 343.5,576.5C 344.906,576.027 345.573,575.027 345.5,573.5C 347.158,570.672 348.492,567.672 349.5,564.5C 351.074,562.898 351.741,560.898 351.5,558.5C 353.095,546.021 352.761,533.688 350.5,521.5C 349.806,516.085 348.14,511.085 345.5,506.5C 335.337,484.166 319.671,466.666 298.5,454C 291.898,450.201 285.232,446.701 278.5,443.5C 276.824,441.166 274.491,440.166 271.5,440.5C 271.167,440.5 270.833,440.5 270.5,440.5C 268.383,438.345 265.716,437.345 262.5,437.5C 259.495,435.723 256.162,434.723 252.5,434.5C 251.833,434.5 251.167,434.5 250.5,434.5C 244.82,432.4 238.82,431.4 232.5,431.5C 217.823,429.762 203.823,431.928 190.5,438C 180.211,445.421 173.544,455.255 170.5,467.5C 169.076,469.515 168.41,471.848 168.5,474.5C 167.706,477.802 167.04,481.135 166.5,484.5C 165.151,493.878 165.485,503.211 167.5,512.5C 168.525,515.974 169.192,519.64 169.5,523.5C 169.41,526.152 170.076,528.485 171.5,530.5C 171.5,531.167 171.5,531.833 171.5,532.5C 171.259,534.898 171.926,536.898 173.5,538.5C 174.537,539.93 175.204,541.597 175.5,543.5C 175.12,545.698 175.787,547.365 177.5,548.5C 196.995,593.661 228.328,627.994 271.5,651.5C 271.973,652.906 272.973,653.573 274.5,653.5C 282.084,657.924 290.084,661.591 298.5,664.5C 299.93,665.537 301.597,666.204 303.5,666.5C 305.421,667.363 307.421,668.029 309.5,668.5C 311.515,669.924 313.848,670.59 316.5,670.5C 320.575,672.118 324.908,673.118 329.5,673.5C 332.627,674.581 335.96,675.247 339.5,675.5C 392.749,683.127 437.583,667.127 474,627.5C 478.436,621.608 482.602,615.608 486.5,609.5C 487.906,609.027 488.573,608.027 488.5,606.5C 489.678,602.162 491.345,598.162 493.5,594.5C 494.924,592.485 495.59,590.152 495.5,587.5C 497.412,582.271 497.745,576.938 496.5,571.5C 492.5,571.5 488.5,571.5 484.5,571.5C 482.485,570.076 480.152,569.41 477.5,569.5C 475.898,567.926 473.898,567.259 471.5,567.5C 458.239,561.566 449.572,551.566 445.5,537.5C 445.204,535.597 444.537,533.93 443.5,532.5C 441.484,525.735 440.317,518.735 440,511.5C 439.833,435.999 439.333,360.666 438.5,285.5C 438.472,282.084 437.472,279.084 435.5,276.5C 434.772,274.265 433.439,272.432 431.5,271C 428.298,269.237 425.298,267.237 422.5,265C 427.101,258.238 433.434,254.072 441.5,252.5C 445.798,251.8 450.131,251.467 454.5,251.5C 462.473,253.473 467.473,258.473 469.5,266.5C 469.259,268.898 469.926,270.898 471.5,272.5C 472.434,273.568 472.768,274.901 472.5,276.5C 473.311,357.155 473.811,437.822 474,518.5C 474.39,521.104 475.224,523.438 476.5,525.5C 481.113,539.447 490.447,543.614 504.5,538C 512.172,530.492 515.839,521.326 515.5,510.5C 516.666,433.001 516.832,355.334 516,277.5C 515.768,276.263 515.268,275.263 514.5,274.5C 514.52,266.981 518.354,263.315 526,263.5C 534.028,264.174 541.028,267.174 547,272.5C 548.094,274.078 548.928,275.745 549.5,277.5C 549.333,356.501 549.5,435.501 550,514.5C 550.149,518.133 550.982,521.466 552.5,524.5C 554.454,530.227 557.787,535.06 562.5,539C 579.481,542.428 589.314,535.594 592,518.5C 592.333,440.833 592.667,363.167 593,285.5C 593.41,279.549 594.576,273.882 596.5,268.5C 598.074,266.898 598.741,264.898 598.5,262.5C 602.7,252.822 610.034,248.988 620.5,251C 628.912,253.122 636.412,256.956 643,262.5C 643.765,264.066 643.598,265.399 642.5,266.5 Z"/></g>
<g><path style="opacity:1" fill="#da6e60" d="M 874.5,252.5 C 875.906,252.973 876.573,253.973 876.5,255.5C 875.094,255.027 874.427,254.027 874.5,252.5 Z"/></g>
<g><path style="opacity:1" fill="#d96b5c" d="M 105.5,263.5 C 105.573,265.027 104.906,266.027 103.5,266.5C 103.427,264.973 104.094,263.973 105.5,263.5 Z"/></g>
<g><path style="opacity:1" fill="#f0bdb6" d="M 598.5,262.5 C 598.741,264.898 598.074,266.898 596.5,268.5C 596.259,266.102 596.926,264.102 598.5,262.5 Z"/></g>
<g><path style="opacity:1" fill="#df8073" d="M 642.5,266.5 C 641.486,267.674 640.153,268.34 638.5,268.5C 639.287,266.896 640.62,266.229 642.5,266.5 Z"/></g>
<g><path style="opacity:1" fill="#dc7567" d="M 882.5,265.5 C 883.906,265.973 884.573,266.973 884.5,268.5C 883.094,268.027 882.427,267.027 882.5,265.5 Z"/></g>
<g><path style="opacity:1" fill="#db7162" d="M 102.5,268.5 C 102.573,270.027 101.906,271.027 100.5,271.5C 100.427,269.973 101.094,268.973 102.5,268.5 Z"/></g>
<g><path style="opacity:1" fill="#eaa9a0" d="M 469.5,266.5 C 471.074,268.102 471.741,270.102 471.5,272.5C 469.926,270.898 469.259,268.898 469.5,266.5 Z"/></g>
<g><path style="opacity:1" fill="#da6f60" d="M 887.5,274.5 C 888.906,274.973 889.573,275.973 889.5,277.5C 888.094,277.027 887.427,276.027 887.5,274.5 Z"/></g>
<g><path style="opacity:1" fill="#de7c6f" d="M 98.5,275.5 C 98.573,277.027 97.9063,278.027 96.5,278.5C 96.427,276.973 97.0937,275.973 98.5,275.5 Z"/></g>
<g><path style="opacity:1" fill="#db7061" d="M 435.5,276.5 C 437.472,279.084 438.472,282.084 438.5,285.5C 436.69,282.855 435.69,279.855 435.5,276.5 Z"/></g>
<g><path style="opacity:1" fill="#eec0ba" d="M 549.5,277.5 C 550.333,355.999 550.833,434.666 551,513.5C 551.548,517.17 552.048,520.837 552.5,524.5C 550.982,521.466 550.149,518.133 550,514.5C 549.5,435.501 549.333,356.501 549.5,277.5 Z"/></g>
<g><path style="opacity:1" fill="#e08c82" d="M 514.5,274.5 C 515.268,275.263 515.768,276.263 516,277.5C 516.832,355.334 516.666,433.001 515.5,510.5C 515.822,431.811 515.488,353.144 514.5,274.5 Z"/></g>
<g><path style="opacity:1" fill="#db7466" d="M 893.5,285.5 C 894.906,285.973 895.573,286.973 895.5,288.5C 894.094,288.027 893.427,287.027 893.5,285.5 Z"/></g>
<g><path style="opacity:1" fill="#e1877a" d="M 89.5,292.5 C 89.573,294.027 88.9063,295.027 87.5,295.5C 87.427,293.973 88.0937,292.973 89.5,292.5 Z"/></g>
<g><path style="opacity:1" fill="#e69f97" d="M 472.5,276.5 C 473.302,277.952 473.802,279.618 474,281.5C 474.333,360.167 474.667,438.833 475,517.5C 475.822,520.117 476.322,522.784 476.5,525.5C 475.224,523.438 474.39,521.104 474,518.5C 473.811,437.822 473.311,357.155 472.5,276.5 Z"/></g>
<g><path style="opacity:1" fill="#d96957" d="M 911.5,323.5 C 913.065,325.509 914.065,327.843 914.5,330.5C 912.166,328.824 911.166,326.491 911.5,323.5 Z"/></g>
<g><path style="opacity:1" fill="#db7161" d="M 914.5,330.5 C 915.537,331.93 916.204,333.597 916.5,335.5C 914.787,334.365 914.12,332.698 914.5,330.5 Z"/></g>
<g><path style="opacity:1" fill="#d96b5a" d="M 916.5,336.5 C 918.065,338.509 919.065,340.843 919.5,343.5C 917.166,341.824 916.166,339.491 916.5,336.5 Z"/></g>
<g><path style="opacity:1" fill="#d76454" d="M 241.5,353.5 C 250.149,353.733 258.482,355.066 266.5,357.5C 257.978,356.523 249.645,355.19 241.5,353.5 Z"/></g>
<g><path style="opacity:1" fill="#e79e94" d="M 204.5,353.5 C 200.684,354.482 196.684,355.149 192.5,355.5C 196.183,353.75 200.183,353.083 204.5,353.5 Z"/></g>
<g><path style="opacity:1" fill="#d5604f" d="M 274.5,359.5 C 277.152,359.41 279.485,360.076 281.5,361.5C 278.848,361.59 276.515,360.924 274.5,359.5 Z"/></g>
<g><path style="opacity:1" fill="#d6604e" d="M 281.5,361.5 C 285.358,361.77 288.691,363.103 291.5,365.5C 287.851,364.733 284.518,363.4 281.5,361.5 Z"/></g>
<g><path style="opacity:1" fill="#d65f4d" d="M 292.5,365.5 C 295.491,365.166 297.824,366.166 299.5,368.5C 296.843,368.065 294.509,367.065 292.5,365.5 Z"/></g>
<g><path style="opacity:1" fill="#de7b6e" d="M 925.5,362.5 C 926.924,364.515 927.59,366.848 927.5,369.5C 926.076,367.485 925.41,365.152 925.5,362.5 Z"/></g>
<g><path style="opacity:1" fill="#eba8a0" d="M 699.5,380.5 C 699.027,381.906 698.027,382.573 696.5,382.5C 696.973,381.094 697.973,380.427 699.5,380.5 Z"/></g>
<g><path style="opacity:1" fill="#e49388" d="M 56.5,379.5 C 56.7406,381.898 56.0739,383.898 54.5,385.5C 54.2594,383.102 54.9261,381.102 56.5,379.5 Z"/></g>
<g><path style="opacity:1" fill="#df8174" d="M 931.5,385.5 C 933.074,387.102 933.741,389.102 933.5,391.5C 931.926,389.898 931.259,387.898 931.5,385.5 Z"/></g>
<g><path style="opacity:1" fill="#e7a096" d="M 53.5,391.5 C 53.7406,393.898 53.0739,395.898 51.5,397.5C 51.2594,395.102 51.9261,393.102 53.5,391.5 Z"/></g>
<g><path style="opacity:1" fill="#e0877c" d="M 933.5,393.5 C 934.924,395.515 935.59,397.848 935.5,400.5C 934.076,398.485 933.41,396.152 933.5,393.5 Z"/></g>
<g><path style="opacity:1" fill="#e1877a" d="M 669.5,407.5 C 668.018,412.015 667.352,416.681 667.5,421.5C 665.903,416.552 666.569,411.886 669.5,407.5 Z"/></g>
<g><path style="opacity:1" fill="#e8a39a" d="M 111.5,411.5 C 111.573,413.027 110.906,414.027 109.5,414.5C 109.427,412.973 110.094,411.973 111.5,411.5 Z"/></g>
<g><path style="opacity:1" fill="#dc7364" d="M 937.5,412.5 C 939.561,418.196 940.561,424.196 940.5,430.5C 938.579,424.777 937.579,418.777 937.5,412.5 Z"/></g>
<g><path style="opacity:1" fill="#e8a39a" d="M 232.5,431.5 C 238.82,431.4 244.82,432.4 250.5,434.5C 244.31,433.857 238.31,432.857 232.5,431.5 Z"/></g>
<g><path style="opacity:1" fill="#edb5ad" d="M 252.5,434.5 C 256.162,434.723 259.495,435.723 262.5,437.5C 258.838,437.277 255.505,436.277 252.5,434.5 Z"/></g>
<g><path style="opacity:1" fill="#e38e83" d="M 100.5,433.5 C 99.6096,439.166 97.943,444.5 95.5,449.5C 96.3904,443.834 98.057,438.5 100.5,433.5 Z"/></g>
<g><path style="opacity:1" fill="#ecb1a9" d="M 262.5,437.5 C 265.716,437.345 268.383,438.345 270.5,440.5C 267.603,439.871 264.936,438.871 262.5,437.5 Z"/></g>
<g><path style="opacity:1" fill="#f0bfb9" d="M 271.5,440.5 C 274.491,440.166 276.824,441.166 278.5,443.5C 275.843,443.065 273.509,442.065 271.5,440.5 Z"/></g>
<g><path style="opacity:1" fill="#df8073" d="M 940.5,430.5 C 941.972,434.919 942.638,439.586 942.5,444.5C 940.896,440.1 940.229,435.434 940.5,430.5 Z"/></g>
<g><path style="opacity:1" fill="#de7e71" d="M 94.5,455.5 C 93.8569,461.69 92.8569,467.69 91.5,473.5C 91.3996,467.18 92.3996,461.18 94.5,455.5 Z"/></g>
<g><path style="opacity:1" fill="#e79f96" d="M 405.5,460.5 C 406.906,460.973 407.573,461.973 407.5,463.5C 406.094,463.027 405.427,462.027 405.5,460.5 Z"/></g>
<g><path style="opacity:1" fill="#d86858" d="M 170.5,467.5 C 170.59,470.152 169.924,472.485 168.5,474.5C 168.41,471.848 169.076,469.515 170.5,467.5 Z"/></g>
<g><path style="opacity:1" fill="#e79d93" d="M 417.5,485.5 C 419.61,489.502 420.943,493.835 421.5,498.5C 419.39,494.498 418.057,490.165 417.5,485.5 Z"/></g>
<g><path style="opacity:1" fill="#d96d5e" d="M 736.5,488.5 C 737.906,488.973 738.573,489.973 738.5,491.5C 737.094,491.027 736.427,490.027 736.5,488.5 Z"/></g>
<g><path style="opacity:1" fill="#f3d2ce" d="M 166.5,484.5 C 166.538,493.846 166.871,503.18 167.5,512.5C 165.485,503.211 165.151,493.878 166.5,484.5 Z"/></g>
<g><path style="opacity:1" fill="#e3938a" d="M 42.5,466.5 C 42.2573,488.849 42.5907,511.182 43.5,533.5C 42.6862,531.369 42.1862,529.036 42,526.5C 41.1709,506.329 41.3375,486.329 42.5,466.5 Z"/></g>
<g><path style="opacity:1" fill="#eeb7b0" d="M 824.5,491.5 C 826.065,493.509 827.065,495.843 827.5,498.5C 825.166,496.824 824.166,494.491 824.5,491.5 Z"/></g>
<g><path style="opacity:1" fill="#e9a59c" d="M 829.5,503.5 C 830.537,504.93 831.204,506.597 831.5,508.5C 829.787,507.365 829.12,505.698 829.5,503.5 Z"/></g>
<g><path style="opacity:1" fill="#e18b7f" d="M 422.5,503.5 C 423.924,505.515 424.59,507.848 424.5,510.5C 423.076,508.485 422.41,506.152 422.5,503.5 Z"/></g>
<g><path style="opacity:1" fill="#db7162" d="M 345.5,506.5 C 348.14,511.085 349.806,516.085 350.5,521.5C 348.256,516.767 346.589,511.767 345.5,506.5 Z"/></g>
<g><path style="opacity:1" fill="#e9a79e" d="M 831.5,509.5 C 833.61,513.502 834.943,517.835 835.5,522.5C 833.39,518.498 832.057,514.165 831.5,509.5 Z"/></g>
<g><path style="opacity:1" fill="#de7f72" d="M 91.5,512.5 C 92.889,517.269 93.5557,522.269 93.5,527.5C 92.111,522.731 91.4443,517.731 91.5,512.5 Z"/></g>
<g><path style="opacity:1" fill="#db7060" d="M 753.5,521.5 C 754.537,522.93 755.204,524.597 755.5,526.5C 753.787,525.365 753.12,523.698 753.5,521.5 Z"/></g>
<g><path style="opacity:1" fill="#e39185" d="M 169.5,523.5 C 170.924,525.515 171.59,527.848 171.5,530.5C 170.076,528.485 169.41,526.152 169.5,523.5 Z"/></g>
<g><path style="opacity:1" fill="#e08478" d="M 756.5,529.5 C 757.924,531.515 758.59,533.848 758.5,536.5C 757.076,534.485 756.41,532.152 756.5,529.5 Z"/></g>
<g><path style="opacity:1" fill="#e69d94" d="M 836.5,527.5 C 837.924,529.515 838.59,531.848 838.5,534.5C 837.076,532.485 836.41,530.152 836.5,527.5 Z"/></g>
<g><path style="opacity:1" fill="#df8073" d="M 443.5,532.5 C 444.537,533.93 445.204,535.597 445.5,537.5C 443.787,536.365 443.12,534.698 443.5,532.5 Z"/></g>
<g><path style="opacity:1" fill="#ebada4" d="M 171.5,532.5 C 173.074,534.102 173.741,536.102 173.5,538.5C 171.926,536.898 171.259,534.898 171.5,532.5 Z"/></g>
<g><path style="opacity:1" fill="#e0887c" d="M 94.5,534.5 C 95.9238,536.515 96.5905,538.848 96.5,541.5C 95.0762,539.485 94.4095,537.152 94.5,534.5 Z"/></g>
<g><path style="opacity:1" fill="#df8175" d="M 758.5,536.5 C 759.924,538.515 760.59,540.848 760.5,543.5C 759.076,541.485 758.41,539.152 758.5,536.5 Z"/></g>
<g><path style="opacity:1" fill="#e69a90" d="M 175.5,543.5 C 176.537,544.93 177.204,546.597 177.5,548.5C 175.787,547.365 175.12,545.698 175.5,543.5 Z"/></g>
<g><path style="opacity:1" fill="#ebaea6" d="M 839.5,541.5 C 840.972,545.919 841.638,550.586 841.5,555.5C 840.028,551.081 839.362,546.414 839.5,541.5 Z"/></g>
<g><path style="opacity:1" fill="#dd7a6c" d="M 98.5,550.5 C 99.9238,552.515 100.59,554.848 100.5,557.5C 99.0762,555.485 98.4095,553.152 98.5,550.5 Z"/></g>
<g><path style="opacity:1" fill="#e8a59d" d="M 44.5,547.5 C 46.1896,555.645 47.5229,563.978 48.5,572.5C 46.0665,564.482 44.7331,556.149 44.5,547.5 Z"/></g>
<g><path style="opacity:1" fill="#dc7362" d="M 423.5,556.5 C 423.88,558.698 423.213,560.365 421.5,561.5C 421.402,559.447 422.069,557.78 423.5,556.5 Z"/></g>
<g><path style="opacity:1" fill="#e6988d" d="M 351.5,558.5 C 351.741,560.898 351.074,562.898 349.5,564.5C 349.595,562.214 350.262,560.214 351.5,558.5 Z"/></g>
<g><path style="opacity:1" fill="#dd7a6c" d="M 101.5,560.5 C 102.871,562.936 103.871,565.603 104.5,568.5C 102.345,566.383 101.345,563.716 101.5,560.5 Z"/></g>
<g><path style="opacity:1" fill="#edb4ac" d="M 471.5,567.5 C 473.898,567.259 475.898,567.926 477.5,569.5C 475.102,569.741 473.102,569.074 471.5,567.5 Z"/></g>
<g><path style="opacity:1" fill="#e79f96" d="M 477.5,569.5 C 480.152,569.41 482.485,570.076 484.5,571.5C 481.848,571.59 479.515,570.924 477.5,569.5 Z"/></g>
<g><path style="opacity:1" fill="#d86856" d="M 104.5,569.5 C 106.065,571.509 107.065,573.843 107.5,576.5C 105.166,574.824 104.166,572.491 104.5,569.5 Z"/></g>
<g><path style="opacity:1" fill="#e39288" d="M 939.5,568.5 C 939.59,571.152 938.924,573.485 937.5,575.5C 937.41,572.848 938.076,570.515 939.5,568.5 Z"/></g>
<g><path style="opacity:1" fill="#e39287" d="M 345.5,573.5 C 345.573,575.027 344.906,576.027 343.5,576.5C 343.427,574.973 344.094,573.973 345.5,573.5 Z"/></g>
<g><path style="opacity:1" fill="#eaa69d" d="M 571.5,573.5 C 573.435,581.667 575.101,590 576.5,598.5C 573.447,590.569 571.78,582.236 571.5,573.5 Z"/></g>
<g><path style="opacity:1" fill="#eaada6" d="M 763.5,561.5 C 764.994,568.103 765.661,574.936 765.5,582C 765.499,586.68 765.166,591.18 764.5,595.5C 764.627,584.148 764.294,572.815 763.5,561.5 Z"/></g>
<g><path style="opacity:1" fill="#e69c93" d="M 841.5,556.5 C 842.892,566.633 843.558,576.966 843.5,587.5C 843.499,593.343 843.166,599.01 842.5,604.5C 842.5,588.491 842.166,572.491 841.5,556.5 Z"/></g>
<g><path style="opacity:1" fill="#e8a299" d="M 352.5,586.5 C 355.152,586.41 357.485,587.076 359.5,588.5C 356.848,588.59 354.515,587.924 352.5,586.5 Z"/></g>
<g><path style="opacity:1" fill="#e8a49a" d="M 359.5,588.5 C 368.482,589.218 377.482,589.552 386.5,589.5C 383.016,590.165 379.349,590.499 375.5,590.5C 369.914,590.682 364.58,590.015 359.5,588.5 Z"/></g>
<g><path style="opacity:1" fill="#e1897d" d="M 495.5,587.5 C 495.59,590.152 494.924,592.485 493.5,594.5C 493.41,591.848 494.076,589.515 495.5,587.5 Z"/></g>
<g><path style="opacity:1" fill="#e5958b" d="M 936.5,584.5 C 936.277,588.162 935.277,591.495 933.5,594.5C 933.723,590.838 934.723,587.505 936.5,584.5 Z"/></g>
<g><path style="opacity:1" fill="#e4968c" d="M 52.5,594.5 C 53.9238,596.515 54.5905,598.848 54.5,601.5C 53.0762,599.485 52.4095,597.152 52.5,594.5 Z"/></g>
<g><path style="opacity:1" fill="#e79d93" d="M 577.5,602.5 C 579.538,606.94 581.204,611.607 582.5,616.5C 579.676,612.37 578.009,607.703 577.5,602.5 Z"/></g>
<g><path style="opacity:1" fill="#da6d5f" d="M 121.5,606.5 C 122.906,606.973 123.573,607.973 123.5,609.5C 122.094,609.027 121.427,608.027 121.5,606.5 Z"/></g>
<g><path style="opacity:1" fill="#e5978d" d="M 488.5,606.5 C 488.573,608.027 487.906,609.027 486.5,609.5C 486.427,607.973 487.094,606.973 488.5,606.5 Z"/></g>
<g><path style="opacity:1" fill="#e49589" d="M 57.5,613.5 C 58.9238,615.515 59.5905,617.848 59.5,620.5C 58.0762,618.485 57.4095,616.152 57.5,613.5 Z"/></g>
<g><path style="opacity:1" fill="#e49085" d="M 760.5,616.5 C 760.323,620.708 758.99,624.374 756.5,627.5C 757.462,623.605 758.796,619.939 760.5,616.5 Z"/></g>
<g><path style="opacity:1" fill="#e28a7e" d="M 926.5,622.5 C 926.277,626.162 925.277,629.495 923.5,632.5C 923.723,628.838 924.723,625.505 926.5,622.5 Z"/></g>
<g><path style="opacity:1" fill="#e8a096" d="M 60.5,624.5 C 63.5375,631.942 66.2041,639.609 68.5,647.5C 64.675,640.363 62.0083,632.697 60.5,624.5 Z"/></g>
<g><path style="opacity:1" fill="#e49287" d="M 754.5,633.5 C 754.573,635.027 753.906,636.027 752.5,636.5C 752.427,634.973 753.094,633.973 754.5,633.5 Z"/></g>
<g><path style="opacity:1" fill="#e79b91" d="M 923.5,632.5 C 923.323,636.708 921.99,640.374 919.5,643.5C 920.462,639.605 921.796,635.939 923.5,632.5 Z"/></g>
<g><path style="opacity:1" fill="#eaa9a0" d="M 749.5,642.5 C 749.573,644.027 748.906,645.027 747.5,645.5C 747.427,643.973 748.094,642.973 749.5,642.5 Z"/></g>
<g><path style="opacity:1" fill="#d8695a" d="M 271.5,651.5 C 273.027,651.427 274.027,652.094 274.5,653.5C 272.973,653.573 271.973,652.906 271.5,651.5 Z"/></g>
<g><path style="opacity:1" fill="#db6d5c" d="M 833.5,650.5 C 833.88,652.698 833.213,654.365 831.5,655.5C 831.402,653.447 832.069,651.78 833.5,650.5 Z"/></g>
<g><path style="opacity:1" fill="#eaa79e" d="M 70.5,653.5 C 71.5375,654.93 72.2041,656.597 72.5,658.5C 70.7868,657.365 70.1201,655.698 70.5,653.5 Z"/></g>
<g><path style="opacity:1" fill="#f0bdb6" d="M 72.5,659.5 C 74.0652,661.509 75.0652,663.843 75.5,666.5C 73.1663,664.824 72.1663,662.491 72.5,659.5 Z"/></g>
<g><path style="opacity:1" fill="#d96b5a" d="M 298.5,664.5 C 300.698,664.12 302.365,664.787 303.5,666.5C 301.597,666.204 299.93,665.537 298.5,664.5 Z"/></g>
<g><path style="opacity:1" fill="#da6e5f" d="M 309.5,668.5 C 312.152,668.41 314.485,669.076 316.5,670.5C 313.848,670.59 311.515,669.924 309.5,668.5 Z"/></g>
<g><path style="opacity:1" fill="#edb0a7" d="M 911.5,665.5 C 911.834,668.491 910.834,670.824 908.5,672.5C 908.935,669.843 909.935,667.509 911.5,665.5 Z"/></g>
<g><path style="opacity:1" fill="#eeb5ad" d="M 75.5,666.5 C 77.0652,668.509 78.0652,670.843 78.5,673.5C 76.1663,671.824 75.1663,669.491 75.5,666.5 Z"/></g>
<g><path style="opacity:1" fill="#d35543" d="M 329.5,673.5 C 332.187,673.336 334.854,673.503 337.5,674C 338.416,674.278 339.082,674.778 339.5,675.5C 335.96,675.247 332.627,674.581 329.5,673.5 Z"/></g>
<g><path style="opacity:1" fill="#d96858" d="M 638.5,674.5 C 640.898,674.259 642.898,674.926 644.5,676.5C 642.102,676.741 640.102,676.074 638.5,674.5 Z"/></g>
<g><path style="opacity:1" fill="#da6f60" d="M 644.5,676.5 C 647.152,676.41 649.485,677.076 651.5,678.5C 648.848,678.59 646.515,677.924 644.5,676.5 Z"/></g>
<g><path style="opacity:1" fill="#d96b5c" d="M 533.5,675.5 C 534.906,675.973 535.573,676.973 535.5,678.5C 534.094,678.027 533.427,677.027 533.5,675.5 Z"/></g>
<g><path style="opacity:1" fill="#e5978d" d="M 891.5,708.5 C 891.573,710.027 890.906,711.027 889.5,711.5C 889.427,709.973 890.094,708.973 891.5,708.5 Z"/></g>
<g><path style="opacity:1" fill="#cf4935" d="M 793.5,717.5 C 791.1,720.903 788.1,723.57 784.5,725.5C 786.9,722.097 789.9,719.43 793.5,717.5 Z"/></g>
<g><path style="opacity:1" fill="#e8a49b" d="M 885.5,719.5 C 885.573,721.027 884.906,722.027 883.5,722.5C 883.427,720.973 884.094,719.973 885.5,719.5 Z"/></g>
<g><path style="opacity:1" fill="#e9a69d" d="M 103.5,723.5 C 104.906,723.973 105.573,724.973 105.5,726.5C 104.094,726.027 103.427,725.027 103.5,723.5 Z"/></g>
<g><path style="opacity:1" fill="#e8a39a" d="M 882.5,724.5 C 882.573,726.027 881.906,727.027 880.5,727.5C 880.427,725.973 881.094,724.973 882.5,724.5 Z"/></g>
<g><path style="opacity:1" fill="#eaa9a0" d="M 879.5,729.5 C 879.573,731.027 878.906,732.027 877.5,732.5C 877.427,730.973 878.094,729.973 879.5,729.5 Z"/></g>
<g><path style="opacity:1" fill="#ecb1a9" d="M 280.5,739.5 C 289.767,741.922 298.767,744.922 307.5,748.5C 298.086,746.473 289.086,743.473 280.5,739.5 Z"/></g>
<g><path style="opacity:1" fill="#e9a79e" d="M 872.5,740.5 C 872.573,742.027 871.906,743.027 870.5,743.5C 870.427,741.973 871.094,740.973 872.5,740.5 Z"/></g>
<g><path style="opacity:1" fill="#f0bfb8" d="M 315.5,750.5 C 320.894,750.124 325.894,751.124 330.5,753.5C 325.248,753.138 320.248,752.138 315.5,750.5 Z"/></g>
<g><path style="opacity:1" fill="#edb5ad" d="M 620.5,749.5 C 623.491,749.166 625.824,750.166 627.5,752.5C 624.843,752.065 622.509,751.065 620.5,749.5 Z"/></g>
<g><path style="opacity:1" fill="#ebaea6" d="M 628.5,752.5 C 631.152,752.41 633.485,753.076 635.5,754.5C 632.848,754.59 630.515,753.924 628.5,752.5 Z"/></g>
<g><path style="opacity:1" fill="#eaa9a0" d="M 635.5,754.5 C 638.152,754.41 640.485,755.076 642.5,756.5C 639.848,756.59 637.515,755.924 635.5,754.5 Z"/></g>
<g><path style="opacity:1" fill="#e8a39b" d="M 339.5,754.5 C 344.414,754.362 349.081,755.028 353.5,756.5C 348.586,756.638 343.919,755.972 339.5,754.5 Z"/></g>
<g><path style="opacity:1" fill="#eeb4ac" d="M 642.5,756.5 C 645.187,756.336 647.854,756.503 650.5,757C 651.056,757.383 651.389,757.883 651.5,758.5C 648.273,758.324 645.273,757.657 642.5,756.5 Z"/></g>
<g><path style="opacity:1" fill="#e69a91" d="M 652.5,758.5 C 657.507,758.751 662.507,759.084 667.5,759.5C 667.5,759.833 667.5,760.167 667.5,760.5C 662.269,760.556 657.269,759.889 652.5,758.5 Z"/></g>
<g><path style="opacity:1" fill="#eebeb9" d="M 706.5,758.5 C 704.708,759.309 702.708,759.809 700.5,760C 689.505,760.5 678.505,760.667 667.5,760.5C 667.5,760.167 667.5,759.833 667.5,759.5C 680.52,759.687 693.52,759.354 706.5,758.5 Z"/></g>
<g><path style="opacity:1" fill="#efb8b1" d="M 662.5,913.5 C 660.967,915.245 658.967,916.245 656.5,916.5C 658.033,914.755 660.033,913.755 662.5,913.5 Z"/></g>
<g><path style="opacity:1" fill="#d35644" d="M 329.5,915.5 C 332.491,915.166 334.824,916.166 336.5,918.5C 333.843,918.065 331.509,917.065 329.5,915.5 Z"/></g>
<g><path style="opacity:1" fill="#eba79e" d="M 654.5,916.5 C 652.967,918.245 650.967,919.245 648.5,919.5C 650.033,917.755 652.033,916.755 654.5,916.5 Z"/></g>
<g><path style="opacity:1" fill="#d96c5c" d="M 342.5,920.5 C 344.698,920.12 346.365,920.787 347.5,922.5C 345.597,922.204 343.93,921.537 342.5,920.5 Z"/></g>
<g><path style="opacity:1" fill="#d76454" d="M 354.5,924.5 C 357.152,924.41 359.485,925.076 361.5,926.5C 358.848,926.59 356.515,925.924 354.5,924.5 Z"/></g>
<g><path style="opacity:1" fill="#d86757" d="M 361.5,926.5 C 364.152,926.41 366.485,927.076 368.5,928.5C 365.848,928.59 363.515,927.924 361.5,926.5 Z"/></g>
<g><path style="opacity:1" fill="#dc7668" d="M 396.5,935.5 C 399.152,935.41 401.485,936.076 403.5,937.5C 400.848,937.59 398.515,936.924 396.5,935.5 Z"/></g>
<g><path style="opacity:1" fill="#d45a49" d="M 416.5,939.5 C 421.414,939.362 426.081,940.028 430.5,941.5C 425.586,941.638 420.919,940.972 416.5,939.5 Z"/></g>
<g><path style="opacity:1" fill="#d45c4b" d="M 431.5,941.5 C 438.749,941.678 445.749,942.678 452.5,944.5C 445.264,944.235 438.264,943.235 431.5,941.5 Z"/></g>
</svg>
