<?xml version="1.0" encoding="UTF-8"?>
<!DOCTYPE svg PUBLIC "-//W3C//DTD SVG 1.1//EN" "http://www.w3.org/Graphics/SVG/1.1/DTD/svg11.dtd">
<svg xmlns="http://www.w3.org/2000/svg" version="1.1" width="880px" height="880px" style="shape-rendering:geometricPrecision; text-rendering:geometricPrecision; image-rendering:optimizeQuality; fill-rule:evenodd; clip-rule:evenodd" xmlns:xlink="http://www.w3.org/1999/xlink">
<g><path style="opacity:1" fill="#fefefe" d="M -0.5,-0.5 C 292.833,-0.5 586.167,-0.5 879.5,-0.5C 879.5,292.833 879.5,586.167 879.5,879.5C 586.167,879.5 292.833,879.5 -0.5,879.5C -0.5,586.167 -0.5,292.833 -0.5,-0.5 Z"/></g>
<g><path style="opacity:1" fill="#dd7d70" d="M 414.5,176.5 C 409.797,176.437 405.13,176.771 400.5,177.5C 403.017,176.027 405.85,175.36 409,175.5C 411.033,175.506 412.866,175.839 414.5,176.5 Z"/></g>
<g><path style="opacity:1" fill="#c21905" d="M 590.5,201.5 C 589.044,204.614 587.878,207.948 587,211.5C 586.5,286.499 586.333,361.499 586.5,436.5C 585.099,450.87 580.599,464.203 573,476.5C 565.484,486.504 555.65,492.837 543.5,495.5C 539.202,496.2 534.869,496.533 530.5,496.5C 530.263,497.791 530.596,498.791 531.5,499.5C 534.134,525.578 542.967,549.245 558,570.5C 571.64,587.223 588.807,598.223 609.5,603.5C 612.628,604.632 615.962,605.465 619.5,606C 629.161,606.5 638.828,606.666 648.5,606.5C 654.259,606.286 659.926,605.453 665.5,604C 668.239,602.974 670.572,601.474 672.5,599.5C 700.557,584.912 717.391,561.912 723,530.5C 729.141,474.663 712.974,426.497 674.5,386C 664.697,376.69 653.697,369.19 641.5,363.5C 641.027,362.094 640.027,361.427 638.5,361.5C 629.265,355.861 625.598,347.694 627.5,337C 630.808,327.678 636.475,320.011 644.5,314C 648.075,311.046 652.075,308.879 656.5,307.5C 660.395,306.538 664.061,305.204 667.5,303.5C 675.832,302.684 683.832,303.851 691.5,307C 756.2,349.782 793.033,409.949 802,487.5C 802.5,501.829 802.667,516.163 802.5,530.5C 801.103,536.639 800.103,542.973 799.5,549.5C 798.121,554.395 797.121,559.395 796.5,564.5C 794.664,569.341 792.997,574.341 791.5,579.5C 775.963,624.034 746.63,655.701 703.5,674.5C 699.605,675.462 695.939,676.796 692.5,678.5C 688.838,678.723 685.505,679.723 682.5,681.5C 680.585,681.216 678.919,681.549 677.5,682.5C 660.238,684.623 642.905,685.623 625.5,685.5C 565.793,678.235 520.96,648.568 491,596.5C 470.23,629.778 441.73,653.778 405.5,668.5C 399.608,670.129 393.941,672.129 388.5,674.5C 385.572,674.565 382.905,675.232 380.5,676.5C 372.965,677.421 365.631,678.754 358.5,680.5C 356.833,680.5 355.167,680.5 353.5,680.5C 339.518,681.343 325.518,681.676 311.5,681.5C 310.833,681.5 310.167,681.5 309.5,681.5C 305.433,679.946 301.1,679.28 296.5,679.5C 204.857,662.679 134.023,615.013 84,536.5C 68.9888,510.966 58.8221,483.633 53.5,454.5C 53.6653,450.818 53.4986,447.152 53,443.5C 52.7216,442.584 52.2216,441.918 51.5,441.5C 48.8924,417.118 50.5591,393.118 56.5,369.5C 57.4584,369.047 58.2917,368.381 59,367.5C 59.696,364.522 60.196,361.522 60.5,358.5C 75.6093,318.715 103.609,293.382 144.5,282.5C 147.152,282.59 149.485,281.924 151.5,280.5C 164.104,278.891 176.771,278.225 189.5,278.5C 198.362,279.448 207.362,280.448 216.5,281.5C 218.903,281.448 221.236,281.781 223.5,282.5C 225.515,283.924 227.848,284.59 230.5,284.5C 232.861,284.674 235.194,285.007 237.5,285.5C 242.071,288.253 247.071,290.253 252.5,291.5C 261.126,295.143 269.792,298.81 278.5,302.5C 278.973,303.906 279.973,304.573 281.5,304.5C 324.857,327.825 356.357,362.158 376,407.5C 381.421,421.698 384.588,436.364 385.5,451.5C 385.846,460.923 385.18,470.257 383.5,479.5C 378.274,499.393 365.607,511.393 345.5,515.5C 337.483,515.499 329.483,515.166 321.5,514.5C 319.485,513.076 317.152,512.41 314.5,512.5C 310.291,511.157 306.457,509.157 303,506.5C 302.738,502.369 304.072,498.702 307,495.5C 316.972,465.328 312.638,437.328 294,411.5C 272.997,384.743 245.83,367.743 212.5,360.5C 210.485,359.076 208.152,358.41 205.5,358.5C 201.901,357.656 198.234,357.323 194.5,357.5C 185.009,356.342 175.342,356.175 165.5,357C 164.584,357.278 163.918,357.778 163.5,358.5C 148.112,362.22 137.779,371.554 132.5,386.5C 130.194,390.085 128.861,394.085 128.5,398.5C 126.951,404.587 126.284,410.92 126.5,417.5C 126.501,422.346 126.834,427.012 127.5,431.5C 129.68,458.875 138.513,483.875 154,506.5C 182.55,548.225 220.717,577.225 268.5,593.5C 270.515,594.924 272.848,595.59 275.5,595.5C 280.576,597.717 285.909,599.05 291.5,599.5C 295.301,600.639 299.301,601.472 303.5,602C 315.162,602.5 326.829,602.667 338.5,602.5C 343.536,602.412 348.536,601.912 353.5,601C 354.056,600.617 354.389,600.117 354.5,599.5C 355.167,599.5 355.833,599.5 356.5,599.5C 359.152,599.59 361.485,598.924 363.5,597.5C 368.703,596.991 373.37,595.324 377.5,592.5C 378.391,591.89 379.391,591.557 380.5,591.5C 386.016,590.742 390.683,588.409 394.5,584.5C 420.386,570.112 439.552,549.446 452,522.5C 455.335,515.174 456.835,507.507 456.5,499.5C 456.5,498.5 456.5,497.5 456.5,496.5C 451.833,496.5 447.167,496.5 442.5,496.5C 420.359,490.52 406.859,476.187 402,453.5C 401.114,448.53 400.448,443.53 400,438.5C 399.667,364.167 399.333,289.833 399,215.5C 399.027,206.039 395.194,198.705 387.5,193.5C 386.486,192.326 385.153,191.66 383.5,191.5C 382.427,190.749 382.26,189.749 383,188.5C 387.69,182.969 393.524,179.302 400.5,177.5C 405.13,176.771 409.797,176.437 414.5,176.5C 419.286,177.785 423.12,180.451 426,184.5C 429.532,191.095 431.865,198.095 433,205.5C 433.333,282.833 433.667,360.167 434,437.5C 433.898,443.833 435.232,449.833 438,455.5C 439.666,458.331 441.832,460.664 444.5,462.5C 444.973,463.906 445.973,464.573 447.5,464.5C 459.153,467.256 467.32,463.256 472,452.5C 473.206,448.55 474.206,444.55 475,440.5C 475.5,361.167 475.667,281.834 475.5,202.5C 475.5,199.167 475.5,195.833 475.5,192.5C 475.973,191.094 476.973,190.427 478.5,190.5C 482.798,189.8 487.131,189.467 491.5,189.5C 500.507,191.007 506.673,196.007 510,204.5C 510.333,284.833 510.667,365.167 511,445.5C 515.028,464.763 525.861,469.93 543.5,461C 547.396,456.373 550.063,451.206 551.5,445.5C 552.314,443.369 552.814,441.036 553,438.5C 553.5,360.167 553.667,281.834 553.5,203.5C 554.108,191.44 559.441,182.273 569.5,176C 574.558,175.339 579.558,175.672 584.5,177C 589.044,179.519 593.711,181.852 598.5,184C 601.242,185.886 602.909,188.386 603.5,191.5C 597.412,192.592 593.079,195.925 590.5,201.5 Z"/></g>
<g><path style="opacity:1" fill="#df8478" d="M 491.5,189.5 C 487.131,189.467 482.798,189.8 478.5,190.5C 480.634,188.967 483.134,188.3 486,188.5C 488.033,188.506 489.866,188.839 491.5,189.5 Z"/></g>
<g><path style="opacity:1" fill="#e5948a" d="M 383.5,191.5 C 385.153,191.66 386.486,192.326 387.5,193.5C 385.62,193.771 384.287,193.104 383.5,191.5 Z"/></g>
<g><path style="opacity:1" fill="#d35441" d="M 475.5,192.5 C 475.5,195.833 475.5,199.167 475.5,202.5C 472.954,199.132 472.954,195.799 475.5,192.5 Z"/></g>
<g><path style="opacity:1" fill="#c93522" d="M 553.5,203.5 C 553.667,281.834 553.5,360.167 553,438.5C 552.814,441.036 552.314,443.369 551.5,445.5C 552.144,364.677 552.811,284.01 553.5,203.5 Z"/></g>
<g><path style="opacity:1" fill="#f4d6d2" d="M 590.5,201.5 C 589.734,206.499 588.9,211.499 588,216.5C 587.833,290.001 587.333,363.334 586.5,436.5C 586.333,361.499 586.5,286.499 587,211.5C 587.878,207.948 589.044,204.614 590.5,201.5 Z"/></g>
<g><path style="opacity:1" fill="#e08376" d="M 201.5,278.5 C 197.5,278.5 193.5,278.5 189.5,278.5C 176.771,278.225 164.104,278.891 151.5,280.5C 155.301,279.361 159.301,278.528 163.5,278C 176.34,277.173 189.007,277.34 201.5,278.5 Z"/></g>
<g><path style="opacity:1" fill="#d76454" d="M 189.5,278.5 C 193.5,278.5 197.5,278.5 201.5,278.5C 206.727,278.978 211.727,279.978 216.5,281.5C 207.362,280.448 198.362,279.448 189.5,278.5 Z"/></g>
<g><path style="opacity:1" fill="#da6f62" d="M 151.5,280.5 C 149.485,281.924 147.152,282.59 144.5,282.5C 146.515,281.076 148.848,280.41 151.5,280.5 Z"/></g>
<g><path style="opacity:1" fill="#e0877c" d="M 223.5,282.5 C 226.152,282.41 228.485,283.076 230.5,284.5C 227.848,284.59 225.515,283.924 223.5,282.5 Z"/></g>
<g><path style="opacity:1" fill="#e18679" d="M 237.5,285.5 C 242.929,286.747 247.929,288.747 252.5,291.5C 247.071,290.253 242.071,288.253 237.5,285.5 Z"/></g>
<g><path style="opacity:1" fill="#e5958a" d="M 278.5,302.5 C 280.027,302.427 281.027,303.094 281.5,304.5C 279.973,304.573 278.973,303.906 278.5,302.5 Z"/></g>
<g><path style="opacity:1" fill="#db7465" d="M 667.5,303.5 C 664.061,305.204 660.395,306.538 656.5,307.5C 659.626,305.01 663.292,303.677 667.5,303.5 Z"/></g>
<g><path style="opacity:1" fill="#f1c8c3" d="M 194.5,357.5 C 184.135,357.267 173.802,357.6 163.5,358.5C 163.918,357.778 164.584,357.278 165.5,357C 175.342,356.175 185.009,356.342 194.5,357.5 Z"/></g>
<g><path style="opacity:1" fill="#e59b92" d="M 205.5,358.5 C 208.152,358.41 210.485,359.076 212.5,360.5C 209.848,360.59 207.515,359.924 205.5,358.5 Z"/></g>
<g><path style="opacity:1" fill="#e28b7f" d="M 638.5,361.5 C 640.027,361.427 641.027,362.094 641.5,363.5C 639.973,363.573 638.973,362.906 638.5,361.5 Z"/></g>
<g><path style="opacity:1" fill="#d14d39" d="M 60.5,358.5 C 60.196,361.522 59.696,364.522 59,367.5C 58.2917,368.381 57.4584,369.047 56.5,369.5C 57.4624,365.605 58.7957,361.939 60.5,358.5 Z"/></g>
<g><path style="opacity:1" fill="#f3cbc5" d="M 132.5,386.5 C 131.744,390.767 130.411,394.767 128.5,398.5C 128.861,394.085 130.194,390.085 132.5,386.5 Z"/></g>
<g><path style="opacity:1" fill="#f3d1cd" d="M 128.5,398.5 C 127.714,409.482 127.381,420.482 127.5,431.5C 126.834,427.012 126.501,422.346 126.5,417.5C 126.284,410.92 126.951,404.587 128.5,398.5 Z"/></g>
<g><path style="opacity:1" fill="#d76250" d="M 51.5,441.5 C 52.2216,441.918 52.7216,442.584 53,443.5C 53.4986,447.152 53.6653,450.818 53.5,454.5C 52.5511,450.343 51.8844,446.01 51.5,441.5 Z"/></g>
<g><path style="opacity:1" fill="#dc7668" d="M 444.5,462.5 C 446.027,462.427 447.027,463.094 447.5,464.5C 445.973,464.573 444.973,463.906 444.5,462.5 Z"/></g>
<g><path style="opacity:1" fill="#f1c5c0" d="M 385.5,451.5 C 386.655,458.655 386.822,465.988 386,473.5C 385.963,475.974 385.13,477.974 383.5,479.5C 385.18,470.257 385.846,460.923 385.5,451.5 Z"/></g>
<g><path style="opacity:1" fill="#e18c81" d="M 442.5,496.5 C 447.167,496.5 451.833,496.5 456.5,496.5C 456.5,497.5 456.5,498.5 456.5,499.5C 451.946,497.953 447.279,496.953 442.5,496.5 Z"/></g>
<g><path style="opacity:1" fill="#eeb8b2" d="M 543.5,495.5 C 539.356,496.694 535.356,498.027 531.5,499.5C 530.596,498.791 530.263,497.791 530.5,496.5C 534.869,496.533 539.202,496.2 543.5,495.5 Z"/></g>
<g><path style="opacity:1" fill="#e4968c" d="M 314.5,512.5 C 317.152,512.41 319.485,513.076 321.5,514.5C 318.848,514.59 316.515,513.924 314.5,512.5 Z"/></g>
<g><path style="opacity:1" fill="#eebfb9" d="M 321.5,514.5 C 329.483,515.166 337.483,515.499 345.5,515.5C 337.445,516.889 329.445,516.556 321.5,514.5 Z"/></g>
<g><path style="opacity:1" fill="#f0c0ba" d="M 802.5,530.5 C 802.55,537.141 801.55,543.474 799.5,549.5C 800.103,542.973 801.103,536.639 802.5,530.5 Z"/></g>
<g><path style="opacity:1" fill="#f1c3bc" d="M 796.5,564.5 C 796.447,570.175 794.781,575.175 791.5,579.5C 792.997,574.341 794.664,569.341 796.5,564.5 Z"/></g>
<g><path style="opacity:1" fill="#d14f3a" d="M 394.5,584.5 C 390.683,588.409 386.016,590.742 380.5,591.5C 384.88,588.643 389.547,586.31 394.5,584.5 Z"/></g>
<g><path style="opacity:1" fill="#e5968b" d="M 268.5,593.5 C 271.152,593.41 273.485,594.076 275.5,595.5C 272.848,595.59 270.515,594.924 268.5,593.5 Z"/></g>
<g><path style="opacity:1" fill="#db7263" d="M 377.5,592.5 C 373.37,595.324 368.703,596.991 363.5,597.5C 367.94,595.462 372.607,593.796 377.5,592.5 Z"/></g>
<g><path style="opacity:1" fill="#db7567" d="M 363.5,597.5 C 361.485,598.924 359.152,599.59 356.5,599.5C 358.515,598.076 360.848,597.41 363.5,597.5 Z"/></g>
<g><path style="opacity:1" fill="#eaa9a0" d="M 291.5,599.5 C 307.106,601.216 322.773,601.882 338.5,601.5C 338.5,601.833 338.5,602.167 338.5,602.5C 326.829,602.667 315.162,602.5 303.5,602C 299.301,601.472 295.301,600.639 291.5,599.5 Z"/></g>
<g><path style="opacity:1" fill="#d55c4c" d="M 354.5,599.5 C 354.389,600.117 354.056,600.617 353.5,601C 348.536,601.912 343.536,602.412 338.5,602.5C 338.5,602.167 338.5,601.833 338.5,601.5C 343.886,601.223 349.219,600.556 354.5,599.5 Z"/></g>
<g><path style="opacity:1" fill="#d04d39" d="M 672.5,599.5 C 670.572,601.474 668.239,602.974 665.5,604C 659.926,605.453 654.259,606.286 648.5,606.5C 648.5,606.167 648.5,605.833 648.5,605.5C 656.841,604.778 664.841,602.778 672.5,599.5 Z"/></g>
<g><path style="opacity:1" fill="#ebafa7" d="M 609.5,603.5 C 622.431,605.164 635.431,605.831 648.5,605.5C 648.5,605.833 648.5,606.167 648.5,606.5C 638.828,606.666 629.161,606.5 619.5,606C 615.962,605.465 612.628,604.632 609.5,603.5 Z"/></g>
<g><path style="opacity:1" fill="#ecb3ab" d="M 405.5,668.5 C 400.367,671.658 394.7,673.658 388.5,674.5C 393.941,672.129 399.608,670.129 405.5,668.5 Z"/></g>
<g><path style="opacity:1" fill="#edb3ac" d="M 703.5,674.5 C 700.374,676.99 696.708,678.323 692.5,678.5C 695.939,676.796 699.605,675.462 703.5,674.5 Z"/></g>
<g><path style="opacity:1" fill="#eaaaa2" d="M 380.5,676.5 C 380.082,677.222 379.416,677.722 378.5,678C 371.893,679.379 365.227,680.213 358.5,680.5C 365.631,678.754 372.965,677.421 380.5,676.5 Z"/></g>
<g><path style="opacity:1" fill="#e8a59c" d="M 692.5,678.5 C 689.495,680.277 686.162,681.277 682.5,681.5C 685.505,679.723 688.838,678.723 692.5,678.5 Z"/></g>
<g><path style="opacity:1" fill="#e28e82" d="M 296.5,679.5 C 301.1,679.28 305.433,679.946 309.5,681.5C 304.9,681.72 300.567,681.054 296.5,679.5 Z"/></g>
<g><path style="opacity:1" fill="#e69e95" d="M 353.5,680.5 C 352.391,681.29 351.058,681.79 349.5,682C 336.66,682.827 323.993,682.66 311.5,681.5C 325.518,681.676 339.518,681.343 353.5,680.5 Z"/></g>
<g><path style="opacity:1" fill="#e5988d" d="M 677.5,682.5 C 660.322,686.411 642.989,687.411 625.5,685.5C 642.905,685.623 660.238,684.623 677.5,682.5 Z"/></g>
</svg>
